<?xml version="1.0"?>
<svg width="640" height="480" xmlns="http://www.w3.org/2000/svg" xmlns:svg="http://www.w3.org/2000/svg">
 <!-- Created with SVG-edit - http://svg-edit.googlecode.com/ -->
 <g>
  <title>Layer 1</title>
  <path id="svg_2" d="m496.518463,205.396347c-0.353912,0.010269 -0.702515,0.041 -1.05603,0.07692c-5.742432,0.571564 -10.802612,4.211761 -13.371216,9.633514l-1.363953,4.104218c0.292267,-1.422806 0.748718,-2.801971 1.363953,-4.104218c-4.588745,-4.750122 -11.023132,-6.944427 -17.380554,-5.916489c-6.362671,1.030533 -11.884277,5.155136 -14.903992,11.138321c-8.521179,-5.247528 -19.144104,-4.929596 -27.357452,0.828064c-8.218353,5.757492 -12.596954,15.955017 -11.269043,26.242249l0.871735,4.180939c-0.395081,-1.36882 -0.687164,-2.763336 -0.871735,-4.180939l-0.128326,0.384491c-7.14682,0.779236 -13.006897,6.321472 -14.524475,13.737518c-1.522736,7.418884 1.640625,15.029694 7.838928,18.865326l9.674744,2.350189c-3.378662,0.276825 -6.752258,-0.541077 -9.674744,-2.350189c-4.783325,5.351837 -5.880463,13.278107 -2.727417,19.825226c3.152954,6.547119 9.884766,10.31543 16.83197,9.459167l4.224457,-1.114807c-1.363739,0.566284 -2.773712,0.938171 -4.224457,1.114807c3.942474,7.262543 10.47934,12.555969 18.154388,14.665894c7.680206,2.104431 15.832001,0.861298 22.630371,-3.450439c5.547363,8.746582 15.386017,13.340302 25.255219,11.791962c9.874817,-1.548309 18.016113,-8.969757 20.907867,-19.036377l1.005035,-5.627014c-0.153961,1.910065 -0.476959,3.791565 -1.005035,5.627014c6.788025,4.450226 15.324402,4.701355 22.343445,0.653534c7.013489,-4.044525 11.391907,-11.766357 11.453613,-20.171814l-2.512268,-12.561066l-9.905212,-8.498169c7.654175,4.796509 12.483826,12.107635 12.41748,21.059235c9.110291,0.094666 16.846924,-7.708679 20.31781,-16.667755c3.471069,-8.956848 2.158569,-19.167114 -3.444458,-26.837006c2.32196,-5.71402 2.182983,-12.209854 -0.380432,-17.803375c-2.568298,-5.596069 -7.300659,-9.756561 -12.991516,-11.389587c-1.271667,-7.416138 -6.521545,-13.381271 -13.46344,-15.334625c-6.936646,-1.955948 -14.324585,0.453796 -18.969543,6.203674l-2.819824,4.757736c0.717743,-1.720093 1.66098,-3.324844 2.819824,-4.757736c-3.276093,-4.51947 -8.408356,-7.067581 -13.765717,-6.898392l0,0z" stroke-width="5" stroke="#b2b2b2" fill="#bfbfbf"/>
  <path id="svg_3" d="m414.801849,69.779755c-0.583313,0.018753 -1.153992,0.068268 -1.736481,0.126709c-9.391754,0.934731 -17.674774,6.892281 -21.883087,15.768028l-2.233063,6.719223c0.478485,-2.328659 1.2258,-4.585281 2.233063,-6.719223c-7.50708,-7.775108 -18.040009,-11.366341 -28.450714,-9.68158c-10.410797,1.683899 -19.452789,8.438698 -24.391724,18.229576c-13.952362,-8.589806 -31.33786,-8.069313 -44.791107,1.356224c-13.447601,9.426804 -20.614471,26.117027 -18.441467,42.956154l1.427216,6.84404c-0.642303,-2.241653 -1.125275,-4.522369 -1.427216,-6.84404l-0.214539,0.630386c-11.694336,1.27565 -21.282867,10.347839 -23.774048,22.488327c-2.489044,12.141968 2.68924,24.59906 12.835632,30.877548l15.835968,3.847031c-5.530304,0.456421 -11.056366,-0.885498 -15.835968,-3.847031c-7.826508,8.763641 -9.630981,21.738358 -4.469757,32.453278c5.161499,10.716125 16.185608,16.885406 27.556976,15.486267l6.910248,-1.828979c-2.223633,0.930817 -4.530518,1.535187 -6.910248,1.828979c6.453094,11.882111 17.157318,20.551575 29.721375,24.000671c12.563446,3.449524 25.91153,1.409821 37.039612,-5.645996c9.075897,14.316437 25.189606,21.8349 41.34494,19.302551c16.155457,-2.533691 29.486725,-14.679443 34.219238,-31.160675l1.645325,-9.209442c-0.248108,3.128143 -0.780975,6.20459 -1.645325,9.209442c11.116302,7.287689 25.089539,7.697754 36.573883,1.07309c11.481628,-6.627014 18.644409,-19.26123 18.748383,-33.02182l-4.112335,-20.561172l-16.217865,-13.911377c12.538361,7.855179 20.444336,19.821594 20.3302,34.472549c14.914124,0.156311 27.577087,-12.619965 33.255859,-27.281296c5.684814,-14.663712 3.536194,-31.378922 -5.640991,-43.934875c3.806885,-9.349197 3.579407,-19.983444 -0.61615,-29.142487c-4.20459,-9.158173 -11.946716,-15.966347 -21.261902,-18.638268c-2.089935,-12.140694 -10.679688,-21.90641 -22.038055,-25.105942c-11.359375,-3.200516 -23.44928,0.74601 -31.056488,10.155952l-4.615387,7.790169c1.178802,-2.817673 2.718994,-5.443451 4.615387,-7.790169c-5.362701,-7.397034 -13.767792,-11.569084 -22.529388,-11.291824l0,0z" stroke-width="5" stroke="#e5e5e5" fill="#e5e5e5"/>
  <path id="svg_4" d="m391.358673,267.578339c-0.215759,0.009247 -0.422272,0.02774 -0.638031,0.046234c-3.445984,0.345215 -6.48819,2.530548 -8.035492,5.791595l-0.819885,2.468903c0.17569,-0.856873 0.44693,-1.686005 0.819885,-2.468903c-2.755554,-2.854187 -6.626892,-4.173401 -10.448914,-3.556946c-3.822021,0.619537 -7.144714,3.100769 -8.960175,6.697784c-5.122742,-3.15625 -11.506134,-2.965149 -16.447021,0.496246c-4.940887,3.461395 -7.573151,9.592041 -6.771759,15.778168l0.523987,2.512054c-0.237335,-0.822968 -0.416107,-1.658264 -0.523987,-2.512054l-0.083221,0.231171c-4.290527,0.468506 -7.813568,3.800446 -8.729004,8.257416c-0.915436,4.460052 0.98941,9.037231 4.712799,11.342773l5.816254,1.411682c-2.031219,0.166443 -4.059357,-0.326721 -5.816254,-1.411682c-2.872681,3.217896 -3.53537,7.983093 -1.639771,11.916077c1.895599,3.939148 5.945709,6.20462 10.11911,5.68988l2.539795,-0.671936c-0.816803,0.342133 -1.664429,0.564056 -2.539795,0.671936c2.373352,4.364502 6.303253,7.548492 10.917419,8.815308c4.614166,1.263733 9.514984,0.517822 13.602081,-2.074371c3.335022,5.258362 9.252991,8.020081 15.186371,7.089233c5.93338,-0.930847 10.828033,-5.3909 12.566437,-11.444489l0.604126,-3.384338c-0.092468,1.149689 -0.286652,2.280884 -0.604126,3.384338c4.080933,2.675415 9.216003,2.826447 13.429474,0.394531c4.219635,-2.434998 6.848816,-7.073822 6.888885,-12.128754l-1.513397,-7.551575l-5.954956,-5.10733c4.608002,2.88501 7.508423,7.277252 7.468353,12.658905c5.474121,0.055481 10.125275,-4.635742 12.215057,-10.020477c2.0867,-5.381653 1.294556,-11.521545 -2.071289,-16.135712c1.396271,-3.433655 1.313049,-7.335815 -0.231171,-10.70166c-1.541138,-3.362762 -4.386078,-5.86557 -7.804321,-6.845734c-0.767487,-4.460052 -3.923737,-8.044739 -8.094055,-9.222168c-4.173401,-1.174347 -8.61496,0.277405 -11.407501,3.732635l-1.695251,2.860352c0.431519,-1.035645 0.998657,-2.000397 1.695251,-2.860352c-1.969574,-2.718567 -5.058014,-4.250458 -8.275909,-4.148743l0,0z" stroke-linecap="null" stroke-linejoin="null" stroke-dasharray="null" stroke-width="5" stroke="#7f7f7f" fill="#7f7f7f"/>
  <path stroke="#b2b2b2" id="svg_6" d="m430.483429,248.623184c-0.184418,0.003799 -0.36676,0.018967 -0.551178,0.036057c-2.99408,0.275131 -5.635895,2.011383 -6.978577,4.605316l-0.712769,1.960159c0.155396,-0.677429 0.391602,-1.337769 0.712769,-1.960159c-2.393188,-2.269455 -5.754028,-3.318787 -9.07135,-2.825439c-3.321442,0.489578 -6.203644,2.461105 -7.778381,5.318802c-4.444489,-2.506653 -9.991302,-2.354843 -14.278351,0.400375c-4.289093,2.751434 -6.574524,7.622406 -5.882477,12.540802l0.455841,1.998108c-0.207184,-0.654633 -0.358459,-1.320679 -0.455841,-1.998108l-0.066315,0.184082c-3.729645,0.371918 -6.785889,3.020874 -7.579468,6.567352c-0.795654,3.542725 0.855743,7.18219 4.090179,9.013306l5.04953,1.123352c-1.763275,0.132813 -3.524506,-0.256165 -5.04953,-1.123352c-2.496796,2.559784 -3.068665,6.349152 -1.423492,9.47818c1.645203,3.127167 5.159363,4.927917 8.7854,4.519928l2.204651,-0.533203c-0.708649,0.271362 -1.448364,0.447815 -2.204651,0.533203c2.059601,3.470612 5.472229,6.001923 9.477478,7.009521c4.005219,1.007568 8.263245,0.411743 11.808472,-1.648956c2.894623,4.180267 8.033264,6.375702 13.184326,5.635681c5.151062,-0.740051 9.398712,-4.28656 10.90921,-9.098694l0.524231,-2.688812c-0.080811,0.914612 -0.248657,1.812134 -0.524231,2.688812c3.541107,2.129028 8.000092,2.246674 11.661377,0.31308c3.65921,-1.933563 5.944641,-5.622375 5.977783,-9.641357l-1.311584,-6.003815l-5.169708,-4.06073c3.994873,2.290344 6.518616,5.785583 6.481293,10.064545c4.753235,0.045532 8.791626,-3.683136 10.60257,-7.967773c1.813019,-4.280823 1.127197,-9.159393 -1.796448,-12.827332c1.212158,-2.73056 1.139618,-5.83493 -0.198914,-8.508545c-1.338531,-2.673645 -3.80838,-4.662262 -6.779663,-5.442139c-0.665131,-3.546494 -3.404358,-6.396591 -7.02417,-7.332077c-3.621918,-0.933594 -7.480042,0.220108 -9.904297,2.967743l-1.47113,2.273254c0.375031,-0.823532 0.866089,-1.590134 1.47113,-2.273254c-1.709412,-2.161285 -4.38855,-3.379501 -7.183716,-3.297913l0,0z" stroke-linecap="null" stroke-linejoin="null" stroke-dasharray="null" stroke-width="5" fill="#bfbfbf"/>
  <polygon stroke-width="5" stroke="#7f7f7f" points="298,274.2859547920897 299.1083385007399,277.47450292581954 302.48332341309305,277.5432799185039 299.79332936523724,279.5826880325984 300.77084625184966,282.81374268545125 298,280.8856180831641 295.22915374815034,282.81374268545125 296.20667063476276,279.5826880325984 293.51667658690695,277.5432799185039 296.8916614992601,277.47450292581954 298,274.2859547920897 299.1083385007399,277.47450292581954 " strokeWidth="5" strokecolor="#7f7f7f" fill="#ffffff" orient="point" r2="1.885618" r="4.714045" point="5" shape="star" id="svg_7" cy="279" cx="298"/>
  <polygon stroke-width="5" stroke="#7f7f7f" points="278,283.1937515251343 281.0109295962876,291.85581093985815 290.1794660613159,292.04265158707824 282.87178642452636,297.5829393651687 285.527323990719,306.3604726503546 278,301.12249938994626 270.472676009281,306.3604726503546 273.12821357547364,297.5829393651687 265.8205339386841,292.04265158707824 274.9890704037124,291.85581093985815 278,283.1937515251343 281.0109295962876,291.85581093985815 " strokeWidth="5" strokecolor="#7f7f7f" fill="#ffffff" orient="point" r2="5.122499" r="12.806248" point="5" shape="star" id="svg_8" cy="296" cx="278"/>
  <polygon transform="rotate(-19.80937957763672 272.99999999999994,296.74743652343744) " stroke-width="5" stroke="#7f7f7f" points="273,275.41092531606114 278.546124085778,291.36641507964544 295.43454319153307,291.7105750410831 281.9738172766132,301.9157699835668 286.865310214445,318.08396230088636 273,308.4356298735755 259.134689785555,318.08396230088636 264.0261827233868,301.9157699835668 250.56545680846693,291.7105750410831 267.453875914222,291.36641507964544 273,275.41092531606114 278.546124085778,291.36641507964544 " strokeWidth="5" strokecolor="#7f7f7f" fill="#ffffff" orient="point" r2="9.43563" r="23.589075" point="5" shape="star" id="svg_9" cy="299" cx="273"/>
  <polygon stroke-width="5" stroke="#7f7f7f" points="200,231.84310542400874 205.67962654918068,248.18266470267963 222.97457199995154,248.5351090446947 209.1898287999806,258.98595638212214 214.1990663729517,275.5433382433009 200,265.6627578303965 185.80093362704832,275.5433382433009 190.8101712000194,258.98595638212214 177.02542800004846,248.5351090446947 194.32037345081932,248.18266470267963 200,231.84310542400874 205.67962654918068,248.18266470267963 " strokeWidth="5" strokecolor="#7f7f7f" fill="#ffffff" orient="point" r2="9.662758" r="24.156895" point="5" shape="star" id="svg_10" cy="256" cx="200"/>
  <polygon stroke-width="5" stroke="#7f7f7f" points="133,24.29387501384955 144.92172498710323,58.59115326692165 181.2243905841549,59.33094566037937 152.28975623366196,81.26762173584825 162.8043124677581,116.02211683269586 133,95.28244999446018 103.19568753224189,116.02211683269586 113.71024376633804,81.26762173584825 84.77560941584511,59.33094566037937 121.07827501289675,58.59115326692166 133,24.29387501384955 144.92172498710323,58.59115326692165 " strokeWidth="5" strokecolor="#7f7f7f" fill="#ffffff" orient="point" r2="20.28245" r="50.706125" point="5" shape="star" id="svg_11" cy="75" cx="133"/>
  <polygon stroke-width="5" stroke="#7f7f7f" points="101,130.93286713856654 105.48295179978071,143.82974619243814 119.13392095493174,144.10793191181205 108.2535683819727,152.35682723527518 112.20737949945178,165.42563451890467 101,157.62685314457337 89.79262050054824,165.42563451890467 93.7464316180273,152.35682723527518 82.86607904506826,144.10793191181205 96.51704820021929,143.82974619243814 101,130.93286713856654 105.48295179978071,143.82974619243814 " strokeWidth="5" strokecolor="#7f7f7f" fill="#ffffff" orient="point" r2="7.626853" r="19.067133" point="5" shape="star" id="svg_12" cy="150" cx="101"/>
  <polygon stroke-width="5" stroke="#7f7f7f" points="111,171.9198423260405 119.48295383245619,196.32421571281563 145.31426906477577,196.85061811901883 124.7257076259103,212.45975275239246 132.2073845811405,237.1894607179609 111,222.4320630695838 89.79261541885951,237.1894607179609 97.2742923740897,212.45975275239246 76.68573093522423,196.85061811901886 102.51704616754381,196.32421571281563 111,171.9198423260405 119.48295383245619,196.32421571281563 " strokeWidth="5" strokecolor="#7f7f7f" fill="#ffffff" orient="point" r2="14.432063" r="36.080158" point="5" shape="star" id="svg_13" cy="208" cx="111"/>
  <polygon stroke-width="5" stroke="#7f7f7f" points="176,184.26335121697147 178.99456572731722,192.87833387325796 188.11327282086202,193.0641590746592 180.8453091283448,198.57433637013634 183.48641431829304,207.30416531685506 176,202.0946595132114 168.51358568170696,207.30416531685506 171.1546908716552,198.57433637013634 163.88672717913798,193.0641590746592 173.00543427268278,192.87833387325796 176,184.26335121697147 178.99456572731722,192.87833387325796 " strokeWidth="5" strokecolor="#7f7f7f" fill="#ffffff" orient="point" r2="5.09466" r="12.736649" point="5" shape="star" id="svg_14" cy="197" cx="176"/>
  <polygon stroke-width="5" stroke="#7f7f7f" points="143,252.53167708252718 148.04750544093721,267.05270476761416 163.4175884045911,267.36592337777176 151.16703536183644,276.6536306488913 155.61876360234305,291.36823808096466 143,282.58732916698915 130.38123639765695,291.36823808096466 134.83296463816356,276.6536306488913 122.58241159540889,267.36592337777176 137.95249455906279,267.05270476761416 143,252.53167708252718 148.04750544093721,267.05270476761416 " strokeWidth="5" strokecolor="#7f7f7f" fill="#ffffff" orient="point" r2="8.587329" r="21.468323" point="5" shape="star" id="svg_15" cy="274" cx="143"/>
  <polygon stroke-width="5" stroke="#7f7f7f" points="245,248.17157287525382 245.66500310044393,250.0847017554917 247.68999404785583,250.12596795110235 246.07599761914233,251.34961281955907 246.6625077511098,253.28824561127072 245,252.13137084989847 243.3374922488902,253.28824561127072 243.92400238085767,251.34961281955907 242.31000595214417,250.12596795110235 244.33499689955607,250.0847017554917 245,248.17157287525382 245.66500310044393,250.0847017554917 " strokeWidth="5" strokecolor="#7f7f7f" fill="#ffffff" orient="point" r2="1.131371" r="2.828427" point="5" shape="star" id="svg_16" cy="251" cx="245"/>
  <polygon stroke-width="5" stroke="#7f7f7f" points="183,286.1715728752538 183.66500310044393,288.0847017554917 185.68999404785583,288.1259679511024 184.07599761914233,289.34961281955907 184.6625077511098,291.2882456112707 183,290.1313708498985 181.3374922488902,291.2882456112707 181.92400238085767,289.34961281955907 180.31000595214417,288.1259679511024 182.33499689955607,288.0847017554917 183,286.1715728752538 183.66500310044393,288.0847017554917 " strokeWidth="5" strokecolor="#7f7f7f" fill="#ffffff" orient="point" r2="1.131371" r="2.828427" point="5" shape="star" id="svg_17" cy="289" cx="183"/>
  <polygon stroke-width="5" stroke="#7f7f7f" points="41,84.24398569649452 48.46628675167574,105.72353790194006 71.20176433491099,106.1868519066029 53.08070573396439,119.92525923735884 59.665716879189354,141.69115524514984 41,128.7024057214022 22.33428312081065,141.69115524514984 28.919294266035607,119.92525923735884 10.79823566508901,106.1868519066029 33.53371324832426,105.72353790194006 40.99999999999999,84.24398569649452 48.46628675167574,105.72353790194006 " strokeWidth="5" strokecolor="#7f7f7f" fill="#ffffff" orient="point" r2="12.702406" r="31.756014" point="5" shape="star" id="svg_18" cy="116" cx="41"/>
  <polygon transform="rotate(65.33064270019531 251.99999999999997,101.6626739501953) " stroke="#7f7f7f" stroke-width="5" points="252,32.16250991821289 270.0655822753906,84.1348648071289 325.0767822265625,85.25590896606445 281.230712890625,118.49763488769531 297.1639404296875,171.16283416748047 252,139.73499298095703 206.8360595703125,171.16283416748047 222.769287109375,118.49763488769531 178.92320251464844,85.25590896606445 233.93441772460938,84.1348648071289 252,32.16250991821289 270.0655822753906,84.1348648071289 " strokeWidth="5" strokecolor="#7f7f7f" fill="#ffffff" orient="point" r2="30.734996" r="76.837491" point="5" shape="star" id="svg_19" cy="49" cx="223"/>
  <polygon stroke-width="5" stroke="null" points="316,278.3333333333333 317.56742733944657,282.84262134833347 322.340376775301,282.939886704167 318.5361507101204,285.8240453183332 319.9185683486165,290.3934466291663 316,287.6666666666667 312.0814316513835,290.3934466291663 313.4638492898796,285.8240453183332 309.659623224699,282.939886704167 314.43257266055343,282.84262134833347 316,278.3333333333333 317.56742733944657,282.84262134833347 " strokeWidth="5" strokecolor="null" fill="#ffffff" orient="point" r2="2.666667" r="6.666667" point="5" shape="star" id="svg_20" cy="285" cx="316"/>
  <polygon stroke-width="5" stroke="null" points="315,273.4590744661054 317.47832022973455,280.5888848426554 325.0250159167924,280.74267487358577 319.010006366717,285.3029300505657 321.19580057433643,292.52778789336156 315,288.21637021355787 308.80419942566357,292.52778789336156 310.989993633283,285.3029300505657 304.9749840832076,280.74267487358577 312.52167977026545,280.5888848426554 315,273.4590744661054 317.47832022973455,280.5888848426554 " strokeWidth="5" strokecolor="null" fill="#ffffff" orient="point" r2="4.21637" r="10.540926" point="5" shape="star" id="svg_21" cy="284" cx="315"/>
  <polygon stroke-width="5" stroke="#333333" points="201,313.85786437626905 204.32501550221963,323.42350877745855 214.44997023927914,323.6298397555118 206.37998809571167,329.7480640977953 209.31253875554907,339.4412280563537 201,333.65685424949237 192.68746124445093,339.4412280563537 195.62001190428833,329.7480640977953 187.55002976072086,323.6298397555118 197.67498449778037,323.42350877745855 201,313.85786437626905 204.32501550221963,323.42350877745855 " strokeWidth="5" strokecolor="#333333" fill="#bfbfbf" orient="point" r2="5.656854" r="14.142136" point="5" shape="star" id="svg_23" cy="328" cx="201"/>
  <polygon stroke-width="5" stroke="#333333" points="86,241.30773012639648 88.04367521626013,247.18712238102455 94.26683990468669,247.31394088936312 89.30673596187468,251.07442364425475 91.10918804065031,257.0321940474386 86,253.47690794944143 80.89081195934969,257.0321940474386 82.69326403812532,251.07442364425475 77.73316009531331,247.31394088936312 83.95632478373987,247.18712238102455 86,241.30773012639648 88.04367521626013,247.18712238102455 " strokeWidth="5" strokecolor="#333333" fill="#bfbfbf" orient="point" r2="3.476908" r="8.69227" point="5" shape="star" id="svg_24" cy="250" cx="86"/>
  <polygon stroke-width="5" stroke="#333333" points="135,111.62074419500182 139.5563363050325,124.72874108616685 153.4307675142942,125.0114806179162 142.3723070057177,133.3954077528335 146.39084076258123,146.67814728458288 135,138.75170232199926 123.60915923741878,146.67814728458288 127.62769299428233,133.3954077528335 116.5692324857058,125.01148061791622 130.4436636949675,124.72874108616685 135,111.62074419500182 139.5563363050325,124.72874108616685 " strokeWidth="5" strokecolor="#333333" fill="#bfbfbf" orient="point" r2="7.751702" r="19.379256" point="5" shape="star" id="svg_25" cy="131" cx="135"/>
  <polygon stroke-width="5" stroke="#333333" points="227,245.74348245943318 229.88168010192368,254.0337076071307 238.65664087404193,254.2125277881102 231.66265634961678,259.5149888847559 234.2042002548092,267.9157309821732 227,262.90260701622674 219.7957997451908,267.9157309821732 222.33734365038322,259.5149888847559 215.34335912595807,254.2125277881102 224.11831989807632,254.03370760713074 227,245.74348245943318 229.88168010192368,254.0337076071307 " strokeWidth="5" strokecolor="#333333" fill="#bfbfbf" orient="point" r2="4.902607" r="12.256518" point="5" shape="star" id="svg_26" cy="258" cx="227"/>
  <polygon stroke-width="5" stroke="#333333" points="314,259.26335121697144 316.9945657273172,267.878333873258 326.11327282086205,268.0641590746592 318.8453091283448,273.57433637013634 321.48641431829304,282.30416531685506 314,277.0946595132114 306.51358568170696,282.30416531685506 309.1546908716552,273.57433637013634 301.88672717913795,268.0641590746592 311.0054342726828,267.878333873258 314,259.26335121697144 316.9945657273172,267.878333873258 " strokeWidth="5" strokecolor="#333333" fill="#bfbfbf" orient="point" r2="5.09466" r="12.736649" point="5" shape="star" id="svg_27" cy="272" cx="314"/>
  <polygon stroke-width="5" stroke="#333333" points="321,295.05719095841795 321.221667700148,295.6949005851639 321.8966646826186,295.7086559837008 321.35866587304747,296.11653760651967 321.5541692503699,296.76274853709026 321,296.37712361663284 320.4458307496301,296.76274853709026 320.64133412695253,296.11653760651967 320.1033353173814,295.7086559837008 320.778332299852,295.6949005851639 321,295.05719095841795 321.221667700148,295.6949005851639 " strokeWidth="5" strokecolor="#333333" fill="#bfbfbf" orient="point" r2="0.377124" r="0.942809" point="5" shape="star" id="svg_29" cy="296" cx="321"/>
  <polygon stroke-width="5" stroke="#333333" points="153,191.9537482708381 158.6536128557255,208.21846948003602 175.86934439949303,208.569299564671 162.14773775979722,218.9722801741316 167.13403213931375,235.45382629990996 153,225.61850069166476 138.86596786068625,235.45382629990996 143.85226224020278,218.9722801741316 130.13065560050697,208.569299564671 147.3463871442745,208.21846948003602 153,191.9537482708381 158.6536128557255,208.21846948003602 " strokeWidth="5" strokecolor="#333333" fill="#bfbfbf" orient="point" r2="9.618501" r="24.046252" point="5" shape="star" id="svg_30" cy="216" cx="153"/>
  <polygon stroke-width="5" stroke="#333333" points="295,13.589813232421875 305.20635986328125,42.95216369628906 336.2855529785156,43.58551025390625 311.51422119140625,62.36579895019531 320.515869140625,92.11958312988281 295,74.36407470703125 269.484130859375,92.11958312988281 278.48577880859375,62.36579895019531 253.71446228027344,43.58551025390625 284.79364013671875,42.95216369628906 295,13.589813232421875 305.20635986328125,42.95216369628906 " strokeWidth="5" strokecolor="#333333" fill="#bfbfbf" orient="point" r2="17.364075" r="43.410188" point="5" shape="star" id="svg_31" cy="40" cx="262"/>
  <polygon stroke-width="5" stroke="#333333" points="155,20.686059630944072 158.36540922044998,30.36791159398566 168.6133662618509,30.57674916949211 160.44534650474037,36.76930033220316 163.41352305112494,46.58022101503585 155,40.72557614762237 146.58647694887506,46.58022101503585 149.55465349525963,36.76930033220316 141.3866337381491,30.576749169492114 151.63459077955002,30.36791159398566 155,20.686059630944072 158.36540922044998,30.36791159398566 " strokeWidth="5" strokecolor="#333333" fill="#bfbfbf" orient="point" r2="5.725576" r="14.31394" point="5" shape="star" id="svg_32" cy="35" cx="155"/>
 </g>
</svg>